# xmcd
#
# Track frame offsets: 
#        150
#        11892
#        22704
#        35501
#        54555
#        66072
#        78072
#        96011
#        108344
#        120661
#        132788
#        146622
#        162266
#        176395
#
# Disc length: 2513 seconds
#
# Revision: 0
# Processed by: cddbd v1.5.2PL0 Copyright (c) Steve Scherf et al.
# Submitted via: ExactAudioCopy v0.95b4
#
DISCID=a809cf0e
DTITLE=Tonico and Tinoco - Ouro Puro
DYEAR=2001
DGENRE=Country
TTITLE0=Que Linda Morena
TTITLE1=Adeus Mariana
TTITLE2=Canoeiro
TTITLE3=Chitaozinho E Chororo
TTITLE4=Cavalo Preto
TTITLE5=Pingo D'Agua
TTITLE6=Cabocla Tereza
TTITLE7=Mourao Da Porteira
TTITLE8=Pe De Ipe
TTITLE9=Gaucho Alegre
TTITLE10=Chalana
TTITLE11=Ferreirinha
TTITLE12=Bom Jesus De Pirapora
TTITLE13=Moreninha Linda
EXTD=
EXTT0=
EXTT1=
EXTT2=
EXTT3=
EXTT4=
EXTT5=
EXTT6=
EXTT7=
EXTT8=
EXTT9=
EXTT10=
EXTT11=
EXTT12=
EXTT13=
PLAYORDER=
